<svg id="eTKaRxEBoCW1" xmlns="http://www.w3.org/2000/svg" xmlns:xlink="http://www.w3.org/1999/xlink" viewBox="0 0 48 48" shape-rendering="geometricPrecision" text-rendering="geometricPrecision"><path d="M23,45.4q-5.15,0-8.775-3.55t-3.625-8.65v-22.05q0-3.7,2.575-6.3t6.275-2.6q3.75,0,6.325,2.6t2.575,6.35v19.95q0,2.25-1.55,3.825t-3.8,1.575q-2.3,0-3.825-1.65t-1.525-4v-19.85h3.15v20q0,1,.65,1.7t1.55.7q.95,0,1.575-.675t.625-1.625v-20q0-2.4-1.675-4.05t-4.075-1.65-4.075,1.65-1.675,4.05v22.15q0,3.8,2.725,6.4t6.575,2.6q3.9,0,6.6-2.625t2.7-6.475v-22.15h3.15v22.1q0,5.1-3.65,8.675t-8.8,3.575Z" transform="matrix(.707107 0.707107-.707107 0.707107 23.590686-9.302953)"/></svg>
