<svg id="edeN9g4yUlq1" xmlns="http://www.w3.org/2000/svg" xmlns:xlink="http://www.w3.org/1999/xlink" viewBox="0 0 32 32" shape-rendering="geometricPrecision" text-rendering="geometricPrecision"><path d="M26.916667,4L6.083333,4C4.932741,4,4,4.895431,4,6v20c0,1.104569.932741,2,2.083333,2h20.833334C28.067259,28,29,27.104569,29,26v-20c0-1.104569-.932741-2-2.083333-2Zm-12.5,17.5L9.208333,16.5427L10.865417,15l3.55125,3.3456L22.134063,11l1.658125,1.5772Z" transform="matrix(1.278106 0 0 1.333333-5.065074-5.333324)" fill="#0079bf"/><path d="M14,21.5L9,16.5427L10.5908,15L14,18.3456L21.4087,11l1.5918,1.5772Z" fill="none"/><rect width="32" height="32" rx="0" ry="0" fill="none"/></svg>
