<svg cache-id="cb6db3f0df4c46cea3ef8d88d8f99d27" id="eXp4AMUy52w1" xmlns="http://www.w3.org/2000/svg" xmlns:xlink="http://www.w3.org/1999/xlink" viewBox="0 0 60 60" shape-rendering="geometricPrecision" text-rendering="geometricPrecision"><path d="M49.001,0h-38.002C4.934,0,0,4.934,0,10.999v38.003C0,55.066,4.934,60,10.999,60h38.002C55.065,60,60,55.066,60,49.001v-38.002C60,4.934,55.065,0,49.001,0ZM58,49.001C58,53.963,53.963,58,49.001,58h-38.002C6.037,58,2,53.963,2,49.001v-38.002C2,6.037,6.037,2,10.999,2h38.002C53.963,2,58,6.037,58,10.999v38.002Z" fill="#5e6c84"/></svg>
