<?xml version="1.0" encoding="UTF-8" standalone="no"?>
<!DOCTYPE svg PUBLIC "-//W3C//DTD SVG 1.1//EN" "http://www.w3.org/Graphics/SVG/1.1/DTD/svg11.dtd">
<!-- Created with Vectornator (http://vectornator.io/) -->
<svg height="100%" stroke-miterlimit="10" style="fill-rule:nonzero;clip-rule:evenodd;stroke-linecap:round;stroke-linejoin:round;" version="1.1" viewBox="0 0 2803.67 703.98" width="100%" xml:space="preserve" xmlns="http://www.w3.org/2000/svg" xmlns:vectornator="http://vectornator.io" xmlns:xlink="http://www.w3.org/1999/xlink">
<defs/>
<g id="Layer-1" vectornator:layerName="Layer 1">
<path d="M390.406 90.2564C253.859 90.2564 181.015 91.9703 171.874 95.3983C162.733 98.8262 155.306 103.683 149.592 109.967C143.879 116.252 139.594 123.393 136.737 131.392C133.881 139.39 132.453 211.663 132.453 348.21C132.453 484.757 134.738 558.172 139.308 568.456C143.879 578.74 148.735 586.167 153.877 590.738C159.019 595.309 166.446 599.022 176.159 601.879C185.872 604.735 257.287 606.164 390.406 606.164C523.525 606.164 595.798 604.164 607.224 600.165C618.651 596.166 626.935 591.309 632.077 585.596C637.219 579.883 641.218 573.027 644.075 565.028C646.932 557.03 648.36 484.757 648.36 348.21C648.36 211.663 646.646 138.819 643.218 129.678C639.79 120.537 635.505 113.395 630.363 108.253C625.221 103.111 618.08 98.8262 608.938 95.3983C599.797 91.9703 526.953 90.2564 390.406 90.2564ZM290.996 184.525C321.276 184.525 338.13 185.096 341.558 186.239C344.986 187.382 348.128 190.238 350.985 194.809C353.841 199.38 355.27 245.657 355.27 333.641C355.27 421.625 354.413 467.332 352.699 470.759C350.985 474.187 348.699 476.758 345.843 478.472C342.986 480.186 324.704 481.043 290.996 481.043C257.287 481.043 238.434 479.044 234.434 475.044C230.435 471.045 228.435 423.911 228.435 333.641C228.435 243.372 229.292 196.809 231.006 193.952C232.72 191.095 235.577 188.81 239.576 187.096C243.575 185.382 260.715 184.525 290.996 184.525ZM489.817 184.525C520.097 184.525 537.808 186.239 542.95 189.667C548.092 193.095 550.949 221.09 551.52 273.652C552.092 326.214 551.235 353.923 548.949 356.78C546.664 359.637 544.093 361.636 541.236 362.779C538.38 363.922 521.24 364.493 489.817 364.493C458.394 364.493 440.397 363.065 435.827 360.208C431.256 357.351 428.399 354.78 427.257 352.495C426.114 350.21 425.543 324.214 425.543 274.509C425.543 224.804 426.971 197.951 429.828 193.952C432.684 189.953 435.827 187.382 439.255 186.239C442.683 185.096 459.537 184.525 489.817 184.525ZM1918.42 90.2564C1918.42 161.958 1918.42 233.659 1918.42 305.361C1918.42 448.763 1919.27 524.464 1920.99 532.463C1922.7 540.461 1926.13 549.317 1931.27 559.029C1936.41 568.742 1941.27 575.883 1945.84 580.454C1950.41 585.025 1956.13 589.31 1962.98 593.309C1969.84 597.308 1978.69 600.736 1989.55 603.593C2000.4 606.449 2016.4 607.592 2037.54 607.021C2058.68 606.449 2069.82 605.878 2070.96 605.307C2072.1 604.735 2072.68 589.31 2072.68 559.029C2072.68 543.889 2072.68 528.749 2072.68 513.609C2068.68 513.609 2064.68 513.609 2060.68 513.609C2052.68 513.609 2046.39 512.752 2041.82 511.038C2037.25 509.324 2033.83 507.324 2031.54 505.039C2029.25 502.754 2027.26 498.754 2025.54 493.041C2023.83 487.328 2022.97 418.769 2022.97 287.364C2022.97 221.661 2022.97 155.959 2022.97 90.2564C2005.54 90.2564 1988.12 90.2564 1970.69 90.2564C1953.27 90.2564 1935.84 90.2564 1918.42 90.2564ZM2139.52 90.2564C2139.52 161.958 2139.52 233.659 2139.52 305.361C2139.52 448.763 2140.38 524.464 2142.09 532.463C2143.81 540.461 2147.23 549.317 2152.38 559.029C2157.52 568.742 2162.66 576.169 2167.8 581.311C2172.94 586.453 2178.66 590.738 2184.94 594.166C2191.23 597.594 2199.8 600.736 2210.65 603.593C2221.51 606.449 2237.5 607.592 2258.64 607.021C2279.78 606.449 2290.92 605.878 2292.06 605.307C2293.21 604.735 2293.78 589.31 2293.78 559.029C2293.78 543.889 2293.78 528.749 2293.78 513.609C2289.78 513.609 2285.78 513.609 2281.78 513.609C2273.78 513.609 2267.5 512.752 2262.93 511.038C2258.36 509.324 2254.93 507.324 2252.64 505.039C2250.36 502.754 2248.36 498.754 2246.64 493.041C2244.93 487.328 2244.07 418.769 2244.07 287.364C2244.07 221.661 2244.07 155.959 2244.07 90.2564C2226.65 90.2564 2209.22 90.2564 2191.8 90.2564C2174.37 90.2564 2156.95 90.2564 2139.52 90.2564ZM1680.17 225.661C1668.75 225.661 1656.46 226.803 1643.32 229.089C1630.18 231.374 1617.33 235.088 1604.76 240.229C1592.19 245.371 1581.34 251.085 1572.19 257.369C1563.05 263.654 1552.48 273.938 1540.49 288.221C1528.49 302.504 1519.35 316.787 1513.06 331.07C1506.78 345.353 1502.21 359.637 1499.35 373.92C1496.49 388.203 1495.35 407.342 1495.92 431.338C1496.49 455.334 1499.06 475.33 1503.64 491.327C1508.21 507.324 1512.2 518.751 1515.63 525.607C1519.06 532.463 1525.35 541.318 1534.49 552.173C1543.63 563.029 1552.77 571.599 1561.91 577.883C1571.05 584.168 1581.91 589.881 1594.48 595.023C1607.05 600.165 1620.76 604.164 1635.61 607.021C1650.47 609.877 1667.89 611.591 1687.89 612.163C1707.88 612.734 1727.02 611.877 1745.31 609.592C1763.59 607.306 1779.87 604.164 1794.15 600.165C1808.44 596.166 1816.72 593.595 1819.01 592.452C1821.29 591.309 1822.43 575.883 1822.43 546.175C1822.43 531.32 1822.43 516.466 1822.43 501.611C1809.29 505.039 1796.15 508.467 1783.01 511.895C1756.73 518.751 1732.45 522.465 1710.17 523.036C1687.89 523.607 1669.32 521.608 1654.47 517.037C1639.61 512.466 1629.04 507.324 1622.76 501.611C1616.47 495.898 1611.33 489.613 1607.33 482.757C1603.33 475.901 1600.76 469.331 1599.62 463.047C1599.05 459.904 1598.48 456.762 1597.9 453.62C1616.19 454.477 1634.47 455.334 1652.75 456.191C1689.32 457.905 1714.45 457.905 1728.17 456.191C1741.88 454.477 1753.59 452.191 1763.3 449.335C1773.02 446.478 1783.58 441.336 1795.01 433.909C1806.44 426.482 1815.29 417.341 1821.58 406.485C1827.86 395.63 1831.58 387.632 1832.72 382.49C1833.86 377.348 1833.86 366.778 1832.72 350.781C1831.58 334.784 1828.43 321.072 1823.29 309.646C1818.15 298.219 1811.01 287.364 1801.87 277.08C1792.73 266.796 1785.3 259.655 1779.59 255.655C1773.87 251.656 1763.59 246.514 1748.73 240.229C1733.88 233.945 1721.6 229.946 1711.88 228.232C1702.17 226.518 1691.6 225.661 1680.17 225.661ZM1677.6 307.932C1687.32 307.932 1695.03 309.074 1700.74 311.36C1706.46 313.645 1711.6 316.787 1716.17 320.786C1720.74 324.786 1724.45 329.928 1727.31 336.212C1730.17 342.497 1730.74 350.781 1729.02 361.065C1727.31 371.349 1723.6 379.062 1717.88 384.204C1712.17 389.346 1704.46 393.345 1694.74 396.201C1685.03 399.058 1672.46 400.772 1657.04 401.343C1641.61 401.915 1627.61 401.343 1615.04 399.629C1608.76 398.772 1602.47 397.915 1596.19 397.058C1597.33 391.06 1598.48 385.061 1599.62 379.062C1601.9 367.064 1605.62 356.78 1610.76 348.21C1615.9 339.64 1621.61 332.499 1627.9 326.785C1634.18 321.072 1641.61 316.501 1650.18 313.074C1658.75 309.646 1667.89 307.932 1677.6 307.932ZM2525.17 225.661C2513.74 225.661 2501.17 226.803 2487.46 229.089C2473.75 231.374 2461.18 234.802 2449.75 239.372C2438.32 243.943 2428.04 249.371 2418.9 255.655C2409.76 261.94 2401.19 269.367 2393.19 277.937C2385.19 286.507 2378.05 296.219 2371.76 307.075C2365.48 317.93 2360.34 329.356 2356.34 341.354C2352.34 353.352 2349.48 364.779 2347.77 375.634C2346.06 386.489 2345.48 403.629 2346.06 427.053C2346.63 450.477 2348.91 469.617 2352.91 484.471C2356.91 499.326 2360.91 511.038 2364.91 519.608C2368.91 528.178 2373.48 536.176 2378.62 543.604C2383.76 551.031 2391.19 559.315 2400.9 568.456C2410.62 577.597 2421.18 585.31 2432.61 591.595C2444.04 597.88 2455.46 602.736 2466.89 606.164C2478.32 609.592 2489.46 611.877 2500.31 613.02C2511.17 614.162 2522.6 614.448 2534.59 613.877C2546.59 613.305 2558.87 611.591 2571.44 608.735C2584.01 605.878 2595.72 601.879 2606.58 596.737C2617.44 591.595 2628.86 583.882 2640.86 573.598C2652.86 563.314 2661.71 554.173 2667.43 546.175C2673.14 538.176 2678.57 528.463 2683.71 517.037C2688.85 505.61 2692.85 494.184 2695.71 482.757C2698.56 471.331 2700.56 461.047 2701.71 451.906C2702.85 442.765 2703.13 429.053 2702.56 410.77C2701.99 392.488 2699.13 373.634 2693.99 354.209C2688.85 334.784 2683.42 319.929 2677.71 309.646C2672 299.362 2665.14 289.649 2657.14 280.508C2649.14 271.367 2640.29 263.368 2630.58 256.512C2620.86 249.656 2610.29 243.943 2598.87 239.372C2587.44 234.802 2575.16 231.374 2562.02 229.089C2548.88 226.803 2536.59 225.661 2525.17 225.661ZM2523.67 321.643C2529.24 321.643 2534.88 322.215 2540.59 323.357C2552.02 325.643 2561.73 330.213 2569.73 337.069C2577.73 343.925 2584.01 352.495 2588.58 362.779C2593.15 373.063 2596.3 384.489 2598.01 397.058C2599.72 409.628 2599.72 423.625 2598.01 439.051C2596.3 454.477 2593.44 466.76 2589.44 475.901C2585.44 485.043 2580.01 493.041 2573.16 499.897C2566.3 506.753 2556.59 511.895 2544.02 515.323C2531.45 518.751 2519.74 519.322 2508.88 517.037C2498.03 514.752 2488.32 510.181 2479.75 503.325C2471.18 496.469 2465.18 489.899 2461.75 483.614C2458.32 477.33 2455.18 468.474 2452.32 457.048C2449.47 445.621 2448.61 429.91 2449.75 409.913C2450.89 389.917 2453.75 374.777 2458.32 364.493C2462.89 354.209 2469.46 345.353 2478.03 337.926C2486.6 330.499 2496.31 325.643 2507.17 323.357C2512.6 322.215 2518.1 321.643 2523.67 321.643Z" fill="#f9f9f9" fill-rule="nonzero" opacity="1" stroke="#f9f9f9" stroke-linecap="butt" stroke-linejoin="round" stroke-width="1.18742"/>
<path d="M893.553 605.991C895.178 455.532 891.028 304.9 898.427 154.614C899.079 141.371 909.025 129.905 917.495 119.703C949.283 81.423 1003.32 90.8248 1046.1 90.9407C1046.95 136.79 1046.95 136.79 1047.81 182.639C1034.28 184.808 1001.01 180.661 1000.21 206.056C996.065 339.305 998.809 472.679 998.106 605.991C945.83 605.991 945.83 605.991 893.553 605.991ZM1352.56 608.979C1350.93 458.479 1355.21 307.799 1347.67 157.479C1346.99 144.058 1336.76 132.52 1328.14 122.209C1296.45 84.2942 1242.44 93.7486 1200.02 93.9282C1199.16 139.777 1199.16 139.777 1198.31 185.626C1211.84 187.795 1245.11 183.649 1245.9 209.044C1250.05 342.293 1247.31 475.667 1248.01 608.979C1300.29 608.979 1300.29 608.979 1352.56 608.979Z" fill="#f9f9f9" fill-rule="nonzero" opacity="1" stroke="none"/>
<path d="M1046.09 91.2635C1046.09 91.2635 1088.62 167.05 1127.15 167.789C1165.67 168.529 1200.19 94.2214 1200.19 94.2214L1216.04 165.233C1216.04 165.233 1169.6 268.817 1125.66 272.048C1081.72 275.279 1040.27 178.159 1040.27 178.159" fill="#f9f9f9" fill-rule="nonzero" opacity="1" stroke="none"/>
<path d="M1196.49 186.908C1208.1 176.395 1208.1 176.395 1219.71 165.882C1213.1 172.302 1213.1 172.302 1206.5 178.721" fill="#f9f9f9" fill-rule="nonzero" opacity="1" stroke="none"/>
<path d="M1206.43 184.407C1172.8 175.291 1208.75 109.439 1236.49 122.342C1241.74 124.786 1239.61 132.364 1242.06 136.808" fill="#f9f9f9" fill-rule="nonzero" opacity="1" stroke="none"/>
<path d="M1191.85 127.679C1195.99 119.955 1223.23 103.454 1226.37 121.442C1228.27 132.38 1204.09 163.184 1195.6 170.605" fill="#f9f9f9" fill-rule="nonzero" opacity="1" stroke="none"/>
<path d="M1200.58 96.3167C1192.63 114.995 1206.25 118.119 1219.03 116.64" fill="#f9f9f9" fill-rule="nonzero" opacity="1" stroke="none"/>
<path d="M1198.03 105.273C1214.05 108.763 1204.41 128.637 1193 130.893C1192.67 126.261 1192.38 128.888 1195.14 123.251" fill="#f9f9f9" fill-rule="nonzero" opacity="1" stroke="none"/>
<path d="M1254.83 478.921C1256.46 476.43 1256.46 476.43 1258.1 473.939C1251.48 480.628 1253.49 476.845 1251.34 484.867C1253.17 479.994 1253.17 479.994 1255 475.122" fill="#253858" fill-rule="nonzero" opacity="1" stroke="#f9f9f9" stroke-linecap="butt" stroke-linejoin="round" stroke-width="1.18742"/>
<path d="M1255.35 468.942C1255.86 468.516 1255.56 468.586 1256.27 468.893" fill="#253858" fill-rule="nonzero" opacity="1" stroke="none"/>
<path d="M1257.49 467.633C1254.14 471.038 1255.8 468.772 1253.57 475.101C1256.06 469.378 1254.66 471.812 1257.49 467.633Z" fill="#253858" fill-rule="nonzero" opacity="1" stroke="#f9f9f9" stroke-linecap="butt" stroke-linejoin="round" stroke-width="1.18742"/>
<path d="M1254.48 476.342C1254.17 479.823 1253.4 478.872 1254.55 480.012" fill="#253858" fill-rule="nonzero" opacity="1" stroke="#f9f9f9" stroke-linecap="butt" stroke-linejoin="round" stroke-width="1.18742"/>
<path d="M1254.74 476.267C1254.59 479.182 1254.89 478.027 1254.25 479.821" fill="#f9f9f9" fill-rule="nonzero" opacity="1" stroke="#f9f9f9" stroke-linecap="butt" stroke-linejoin="round" stroke-width="1.18742"/>
<path d="M1256.89 468.523C1256.09 468.449 1255.41 471.49 1255.67 472.067" fill="#f9f9f9" fill-rule="nonzero" opacity="1" stroke="#f9f9f9" stroke-linecap="butt" stroke-linejoin="round" stroke-width="1.18742"/>
<path d="M392.702 89.8176C256.155 89.8176 183.311 91.5316 174.17 94.9595C165.029 98.3875 157.602 103.244 151.888 109.528C146.175 115.813 141.89 122.955 139.034 130.953C136.177 138.952 134.749 211.224 134.749 347.771C134.749 484.318 137.034 557.734 141.605 568.017C146.175 578.301 151.031 585.729 156.173 590.299C161.315 594.87 168.743 598.583 178.455 601.44C188.168 604.297 259.583 605.725 392.702 605.725C525.821 605.725 598.094 603.725 609.521 599.726C620.947 595.727 629.231 590.871 634.373 585.157C639.515 579.444 643.515 572.588 646.371 564.59C649.228 556.591 650.656 484.318 650.656 347.771C650.656 211.224 648.942 138.38 645.514 129.239C642.086 120.098 637.801 112.956 632.659 107.814C627.517 102.672 620.376 98.3875 611.235 94.9595C602.093 91.5316 529.249 89.8176 392.702 89.8176ZM293.292 184.086C323.572 184.086 340.426 184.658 343.854 185.8C347.282 186.943 350.424 189.8 353.281 194.37C356.138 198.941 357.566 245.218 357.566 333.202C357.566 421.187 356.709 466.893 354.995 470.321C353.281 473.749 350.996 476.32 348.139 478.034C345.282 479.748 327 480.605 293.292 480.605C259.583 480.605 240.73 478.605 236.73 474.606C232.731 470.606 230.731 423.472 230.731 333.202C230.731 242.933 231.588 196.37 233.302 193.513C235.016 190.657 237.873 188.371 241.872 186.657C245.872 184.943 263.011 184.086 293.292 184.086ZM492.113 184.086C522.393 184.086 540.104 185.8 545.246 189.228C550.388 192.656 553.245 220.651 553.816 273.213C554.388 325.775 553.531 353.485 551.245 356.341C548.96 359.198 546.389 361.197 543.532 362.34C540.676 363.483 523.536 364.054 492.113 364.054C460.69 364.054 442.693 362.626 438.123 359.769C433.552 356.913 430.696 354.342 429.553 352.056C428.41 349.771 427.839 323.776 427.839 274.07C427.839 224.365 429.267 197.513 432.124 193.513C434.981 189.514 438.123 186.943 441.551 185.8C444.979 184.658 461.833 184.086 492.113 184.086Z" fill="#ffffff" fill-rule="nonzero" opacity="1" stroke="none"/>
</g>
</svg>
