<?xml version="1.0" encoding="UTF-8" standalone="no"?>
<!DOCTYPE svg PUBLIC "-//W3C//DTD SVG 1.1//EN" "http://www.w3.org/Graphics/SVG/1.1/DTD/svg11.dtd">
<!-- Created with Vectornator (http://vectornator.io/) -->
<svg height="100%" stroke-miterlimit="10" style="fill-rule:nonzero;clip-rule:evenodd;stroke-linecap:round;stroke-linejoin:round;" version="1.1" viewBox="0 0 3370.82 2384.24" width="100%" xml:space="preserve" xmlns="http://www.w3.org/2000/svg" xmlns:vectornator="http://vectornator.io" xmlns:xlink="http://www.w3.org/1999/xlink">
<defs/>
<g id="Layer-1" vectornator:layerName="Layer 1">
<path d="M516.627 912.947C380.08 912.947 307.236 914.661 298.094 918.088C288.953 921.516 281.526 926.373 275.813 932.657C270.1 938.942 265.815 946.083 262.958 954.082C260.101 962.081 258.673 1034.35 258.673 1170.9C258.673 1307.45 260.958 1380.86 265.529 1391.15C270.1 1401.43 274.956 1408.86 280.098 1413.43C285.24 1418 292.667 1421.71 302.379 1424.57C312.092 1427.43 383.508 1428.85 516.627 1428.85C649.746 1428.85 722.018 1426.85 733.445 1422.86C744.871 1418.86 753.156 1414 758.298 1408.29C763.44 1402.57 767.439 1395.72 770.295 1387.72C773.152 1379.72 774.58 1307.45 774.58 1170.9C774.58 1034.35 772.866 961.509 769.438 952.368C766.011 943.227 761.726 936.085 756.584 930.943C751.442 925.801 744.3 921.516 735.159 918.088C726.018 914.661 653.174 912.947 516.627 912.947ZM417.216 1007.22C447.496 1007.22 464.35 1007.79 467.778 1008.93C471.206 1010.07 474.349 1012.93 477.205 1017.5C480.062 1022.07 481.49 1068.35 481.49 1156.33C481.49 1244.32 480.633 1290.02 478.919 1293.45C477.205 1296.88 474.92 1299.45 472.063 1301.16C469.207 1302.88 450.924 1303.73 417.216 1303.73C383.508 1303.73 364.654 1301.73 360.655 1297.73C356.655 1293.74 354.656 1246.6 354.656 1156.33C354.656 1066.06 355.513 1019.5 357.227 1016.64C358.941 1013.79 361.797 1011.5 365.797 1009.79C369.796 1008.07 386.936 1007.22 417.216 1007.22ZM616.037 1007.22C646.318 1007.22 664.029 1008.93 669.171 1012.36C674.313 1015.79 677.169 1043.78 677.741 1096.34C678.312 1148.9 677.455 1176.61 675.17 1179.47C672.884 1182.33 670.313 1184.33 667.457 1185.47C664.6 1186.61 647.46 1187.18 616.037 1187.18C584.614 1187.18 566.618 1185.75 562.047 1182.9C557.477 1180.04 554.62 1177.47 553.477 1175.19C552.335 1172.9 551.763 1146.9 551.763 1097.2C551.763 1047.49 553.192 1020.64 556.048 1016.64C558.905 1012.64 562.047 1010.07 565.475 1008.93C568.903 1007.79 585.757 1007.22 616.037 1007.22ZM2044.64 912.947C2044.64 984.648 2044.64 1056.35 2044.64 1128.05C2044.64 1271.45 2045.5 1347.15 2047.21 1355.15C2048.92 1363.15 2052.35 1372.01 2057.49 1381.72C2062.63 1391.43 2067.49 1398.57 2072.06 1403.14C2076.63 1407.71 2082.35 1412 2089.2 1416C2096.06 1420 2104.91 1423.43 2115.77 1426.28C2126.62 1429.14 2142.62 1430.28 2163.76 1429.71C2184.9 1429.14 2196.04 1428.57 2197.18 1428C2198.32 1427.43 2198.9 1412 2198.9 1381.72C2198.9 1366.58 2198.9 1351.44 2198.9 1336.3C2194.9 1336.3 2190.9 1336.3 2186.9 1336.3C2178.9 1336.3 2172.62 1335.44 2168.04 1333.73C2163.47 1332.01 2160.05 1330.01 2157.76 1327.73C2155.48 1325.44 2153.48 1321.44 2151.76 1315.73C2150.05 1310.02 2149.19 1241.46 2149.19 1110.05C2149.19 1044.35 2149.19 978.649 2149.19 912.947C2131.77 912.947 2114.34 912.947 2096.91 912.947C2079.49 912.947 2062.06 912.947 2044.64 912.947ZM2265.74 912.947C2265.74 984.648 2265.74 1056.35 2265.74 1128.05C2265.74 1271.45 2266.6 1347.15 2268.31 1355.15C2270.03 1363.15 2273.45 1372.01 2278.6 1381.72C2283.74 1391.43 2288.88 1398.86 2294.02 1404C2299.16 1409.14 2304.88 1413.43 2311.16 1416.86C2317.45 1420.28 2326.02 1423.43 2336.87 1426.28C2347.73 1429.14 2363.72 1430.28 2384.86 1429.71C2406 1429.14 2417.14 1428.57 2418.29 1428C2419.43 1427.43 2420 1412 2420 1381.72C2420 1366.58 2420 1351.44 2420 1336.3C2416 1336.3 2412 1336.3 2408 1336.3C2400 1336.3 2393.72 1335.44 2389.15 1333.73C2384.58 1332.01 2381.15 1330.01 2378.86 1327.73C2376.58 1325.44 2374.58 1321.44 2372.86 1315.73C2371.15 1310.02 2370.29 1241.46 2370.29 1110.05C2370.29 1044.35 2370.29 978.649 2370.29 912.947C2352.87 912.947 2335.44 912.947 2318.02 912.947C2300.59 912.947 2283.17 912.947 2265.74 912.947ZM1806.4 1048.35C1794.97 1048.35 1782.69 1049.49 1769.54 1051.78C1756.4 1054.06 1743.55 1057.78 1730.98 1062.92C1718.41 1068.06 1707.56 1073.77 1698.41 1080.06C1689.27 1086.34 1678.7 1096.63 1666.71 1110.91C1654.71 1125.19 1645.57 1139.48 1639.28 1153.76C1633 1168.04 1628.43 1182.33 1625.57 1196.61C1622.71 1210.89 1621.57 1230.03 1622.14 1254.03C1622.71 1278.02 1625.28 1298.02 1629.86 1314.02C1634.43 1330.01 1638.43 1341.44 1641.85 1348.3C1645.28 1355.15 1651.57 1364.01 1660.71 1374.86C1669.85 1385.72 1678.99 1394.29 1688.13 1400.57C1697.27 1406.86 1708.13 1412.57 1720.7 1417.71C1733.27 1422.86 1746.98 1426.85 1761.83 1429.71C1776.69 1432.57 1794.11 1434.28 1814.11 1434.85C1834.1 1435.42 1853.24 1434.57 1871.53 1432.28C1889.81 1430 1906.09 1426.85 1920.37 1422.86C1934.66 1418.86 1942.94 1416.28 1945.23 1415.14C1947.51 1414 1948.66 1398.57 1948.66 1368.86C1948.66 1354.01 1948.66 1339.16 1948.66 1324.3C1935.51 1327.73 1922.37 1331.16 1909.23 1334.59C1882.95 1341.44 1858.67 1345.15 1836.39 1345.73C1814.11 1346.3 1795.54 1344.3 1780.69 1339.73C1765.83 1335.16 1755.26 1330.01 1748.98 1324.3C1742.69 1318.59 1737.55 1312.3 1733.55 1305.45C1729.55 1298.59 1726.98 1292.02 1725.84 1285.74C1725.27 1282.59 1724.7 1279.45 1724.12 1276.31C1742.41 1277.17 1760.69 1278.02 1778.97 1278.88C1815.54 1280.59 1840.67 1280.59 1854.39 1278.88C1868.1 1277.17 1879.81 1274.88 1889.52 1272.02C1899.24 1269.17 1909.81 1264.03 1921.23 1256.6C1932.66 1249.17 1941.51 1240.03 1947.8 1229.18C1954.08 1218.32 1957.8 1210.32 1958.94 1205.18C1960.08 1200.04 1960.08 1189.47 1958.94 1173.47C1957.8 1157.47 1954.65 1143.76 1949.51 1132.34C1944.37 1120.91 1937.23 1110.05 1928.09 1099.77C1918.95 1089.49 1911.52 1082.34 1905.81 1078.35C1900.09 1074.35 1889.81 1069.2 1874.95 1062.92C1860.1 1056.64 1847.82 1052.64 1838.1 1050.92C1828.39 1049.21 1817.82 1048.35 1806.4 1048.35ZM1803.82 1130.62C1813.54 1130.62 1821.25 1131.76 1826.96 1134.05C1832.68 1136.34 1837.82 1139.48 1842.39 1143.48C1846.96 1147.48 1850.67 1152.62 1853.53 1158.9C1856.39 1165.19 1856.96 1173.47 1855.24 1183.76C1853.53 1194.04 1849.82 1201.75 1844.1 1206.89C1838.39 1212.04 1830.68 1216.04 1820.96 1218.89C1811.25 1221.75 1798.68 1223.46 1783.26 1224.03C1767.83 1224.6 1753.83 1224.03 1741.26 1222.32C1734.98 1221.46 1728.69 1220.61 1722.41 1219.75C1723.55 1213.75 1724.7 1207.75 1725.84 1201.75C1728.12 1189.75 1731.84 1179.47 1736.98 1170.9C1742.12 1162.33 1747.83 1155.19 1754.12 1149.48C1760.4 1143.76 1767.83 1139.19 1776.4 1135.76C1784.97 1132.34 1794.11 1130.62 1803.82 1130.62ZM2651.39 1048.35C2639.96 1048.35 2627.39 1049.49 2613.68 1051.78C2599.97 1054.06 2587.4 1057.49 2575.97 1062.06C2564.54 1066.63 2554.26 1072.06 2545.12 1078.35C2535.98 1084.63 2527.41 1092.06 2519.41 1100.63C2511.41 1109.2 2504.27 1118.91 2497.99 1129.76C2491.7 1140.62 2486.56 1152.05 2482.56 1164.04C2478.56 1176.04 2475.7 1187.47 2473.99 1198.32C2472.28 1209.18 2471.7 1226.32 2472.28 1249.74C2472.85 1273.17 2475.13 1292.31 2479.13 1307.16C2483.13 1322.02 2487.13 1333.73 2491.13 1342.3C2495.13 1350.87 2499.7 1358.87 2504.84 1366.29C2509.98 1373.72 2517.41 1382.01 2527.12 1391.15C2536.84 1400.29 2547.41 1408 2558.83 1414.29C2570.26 1420.57 2581.68 1425.43 2593.11 1428.85C2604.54 1432.28 2615.68 1434.57 2626.53 1435.71C2637.39 1436.85 2648.82 1437.14 2660.81 1436.57C2672.81 1436 2685.09 1434.28 2697.66 1431.42C2710.23 1428.57 2721.95 1424.57 2732.8 1419.43C2743.66 1414.29 2755.08 1406.57 2767.08 1396.29C2779.08 1386 2787.93 1376.86 2793.65 1368.86C2799.36 1360.87 2804.79 1351.15 2809.93 1339.73C2815.07 1328.3 2819.07 1316.87 2821.93 1305.45C2824.78 1294.02 2826.78 1283.74 2827.93 1274.6C2829.07 1265.45 2829.35 1251.74 2828.78 1233.46C2828.21 1215.18 2825.36 1196.32 2820.21 1176.9C2815.07 1157.47 2809.64 1142.62 2803.93 1132.34C2798.22 1122.05 2791.36 1112.34 2783.36 1103.2C2775.36 1094.06 2766.51 1086.06 2756.8 1079.2C2747.08 1072.35 2736.51 1066.63 2725.09 1062.06C2713.66 1057.49 2701.38 1054.06 2688.24 1051.78C2675.1 1049.49 2662.81 1048.35 2651.39 1048.35ZM2649.89 1144.33C2655.46 1144.33 2661.1 1144.9 2666.81 1146.05C2678.24 1148.33 2687.95 1152.9 2695.95 1159.76C2703.95 1166.62 2710.23 1175.19 2714.8 1185.47C2719.37 1195.75 2722.52 1207.18 2724.23 1219.75C2725.94 1232.32 2725.94 1246.32 2724.23 1261.74C2722.52 1277.17 2719.66 1289.45 2715.66 1298.59C2711.66 1307.73 2706.23 1315.73 2699.38 1322.59C2692.52 1329.44 2682.81 1334.59 2670.24 1338.01C2657.67 1341.44 2645.96 1342.01 2635.1 1339.73C2624.25 1337.44 2614.54 1332.87 2605.97 1326.02C2597.4 1319.16 2591.4 1312.59 2587.97 1306.3C2584.54 1300.02 2581.4 1291.16 2578.54 1279.74C2575.69 1268.31 2574.83 1252.6 2575.97 1232.6C2577.11 1212.61 2579.97 1197.47 2584.54 1187.18C2589.11 1176.9 2595.68 1168.04 2604.25 1160.62C2612.82 1153.19 2622.53 1148.33 2633.39 1146.05C2638.82 1144.9 2644.32 1144.33 2649.89 1144.33Z" fill="#253858" fill-rule="nonzero" opacity="1" stroke="none"/>
<path d="M1019.77 1428.68C1021.4 1278.22 1017.25 1127.59 1024.65 977.305C1025.3 964.061 1035.25 952.595 1043.72 942.394C1075.5 904.113 1129.54 913.515 1172.32 913.631C1173.17 959.48 1173.17 959.48 1174.03 1005.33C1160.5 1007.5 1127.23 1003.35 1126.44 1028.75C1122.29 1162 1125.03 1295.37 1124.33 1428.68C1072.05 1428.68 1072.05 1428.68 1019.77 1428.68ZM1478.78 1431.67C1477.15 1281.17 1481.43 1130.49 1473.89 980.17C1473.21 966.748 1462.98 955.21 1454.36 944.899C1422.67 906.984 1368.66 916.439 1326.24 916.618C1325.38 962.467 1325.38 962.467 1324.53 1008.32C1338.06 1010.49 1371.33 1006.34 1372.12 1031.73C1376.27 1164.98 1373.53 1298.36 1374.23 1431.67C1426.51 1431.67 1426.51 1431.67 1478.78 1431.67Z" fill="#253858" fill-rule="nonzero" opacity="1" stroke="none"/>
<path d="M1172.31 913.954C1172.31 913.954 1214.84 989.74 1253.37 990.479C1291.89 991.219 1326.41 916.912 1326.41 916.912L1342.26 987.923C1342.26 987.923 1295.82 1091.51 1251.88 1094.74C1207.94 1097.97 1166.49 1000.85 1166.49 1000.85" fill="#253858" fill-rule="nonzero" opacity="1" stroke="none"/>
<path d="M1322.71 1009.6C1334.32 999.085 1334.32 999.085 1345.93 988.572C1339.32 994.992 1339.32 994.992 1332.72 1001.41" fill="#253858" fill-rule="nonzero" opacity="1" stroke="none"/>
<path d="M1332.65 1007.1C1299.02 997.981 1334.97 932.13 1362.71 945.032C1367.96 947.476 1365.83 955.054 1368.29 959.498" fill="#253858" fill-rule="nonzero" opacity="1" stroke="none"/>
<path d="M1318.08 950.369C1322.21 942.645 1349.45 926.145 1352.59 944.132C1354.49 955.07 1330.31 985.874 1321.82 993.296" fill="#253858" fill-rule="nonzero" opacity="1" stroke="none"/>
<path d="M1326.8 919.007C1318.85 937.686 1332.47 940.809 1345.25 939.33" fill="#253858" fill-rule="nonzero" opacity="1" stroke="none"/>
<path d="M1324.25 927.963C1340.27 931.453 1330.63 951.327 1319.22 953.583C1318.89 948.951 1318.6 951.578 1321.36 945.941" fill="#253858" fill-rule="nonzero" opacity="1" stroke="none"/>
<path d="M1325.44 928.847C1327.08 926.356 1327.08 926.356 1328.72 923.865C1322.1 930.554 1324.11 926.771 1321.95 934.793C1323.78 929.92 1323.78 929.92 1325.61 925.048" fill="#253858" fill-rule="nonzero" opacity="1" stroke="none"/>
<path d="M1325.97 918.868C1326.48 918.442 1326.18 918.513 1326.88 918.819" fill="#253858" fill-rule="nonzero" opacity="1" stroke="none"/>
<path d="M1328.1 917.559C1324.75 920.964 1326.41 918.698 1324.18 925.027C1326.67 919.304 1325.27 921.738 1328.1 917.559Z" fill="#253858" fill-rule="nonzero" opacity="1" stroke="none"/>
<path d="M1325.09 926.268C1324.79 929.749 1324.02 928.798 1325.16 929.938" fill="none" opacity="1" stroke="#253858" stroke-linecap="butt" stroke-linejoin="round" stroke-width="1.18742"/>
<path d="M1325.36 926.193C1325.2 929.108 1325.51 927.953 1324.86 929.747" fill="none" opacity="1" stroke="#253858" stroke-linecap="butt" stroke-linejoin="round" stroke-width="1.18742"/>
<path d="M1327.51 918.449C1326.71 918.375 1326.02 921.416 1326.28 921.993" fill="none" opacity="1" stroke="#253858" stroke-linecap="butt" stroke-linejoin="round" stroke-width="1.18742"/>
<path d="M518.923 912.508C382.376 912.508 309.532 914.222 300.391 917.65C291.249 921.078 283.822 925.934 278.109 932.219C272.396 938.503 268.111 945.645 265.254 953.643C262.397 961.642 260.969 1033.91 260.969 1170.46C260.969 1307.01 263.254 1380.42 267.825 1390.71C272.396 1400.99 277.252 1408.42 282.394 1412.99C287.536 1417.56 294.963 1421.27 304.676 1424.13C314.388 1426.99 385.804 1428.42 518.923 1428.42C652.042 1428.42 724.315 1426.42 735.741 1422.42C747.168 1418.42 755.452 1413.56 760.594 1407.85C765.736 1402.13 769.735 1395.28 772.592 1387.28C775.448 1379.28 776.877 1307.01 776.877 1170.46C776.877 1033.91 775.163 961.071 771.735 951.929C768.307 942.788 764.022 935.646 758.88 930.505C753.738 925.363 746.596 921.078 737.455 917.65C728.314 914.222 655.47 912.508 518.923 912.508ZM419.512 1006.78C449.792 1006.78 466.646 1007.35 470.074 1008.49C473.502 1009.63 476.645 1012.49 479.501 1017.06C482.358 1021.63 483.786 1067.91 483.786 1155.89C483.786 1243.88 482.929 1289.58 481.215 1293.01C479.501 1296.44 477.216 1299.01 474.359 1300.72C471.503 1302.44 453.22 1303.29 419.512 1303.29C385.804 1303.29 366.95 1301.3 362.951 1297.3C358.952 1293.3 356.952 1246.16 356.952 1155.89C356.952 1065.62 357.809 1019.06 359.523 1016.2C361.237 1013.35 364.093 1011.06 368.093 1009.35C372.092 1007.63 389.232 1006.78 419.512 1006.78ZM618.334 1006.78C648.614 1006.78 666.325 1008.49 671.467 1011.92C676.609 1015.35 679.465 1043.34 680.037 1095.9C680.608 1148.47 679.751 1176.17 677.466 1179.03C675.18 1181.89 672.61 1183.89 669.753 1185.03C666.896 1186.17 649.756 1186.74 618.334 1186.74C586.911 1186.74 568.914 1185.32 564.343 1182.46C559.773 1179.6 556.916 1177.03 555.773 1174.75C554.631 1172.46 554.059 1146.47 554.059 1096.76C554.059 1047.06 555.488 1020.2 558.344 1016.2C561.201 1012.2 564.343 1009.63 567.771 1008.49C571.199 1007.35 588.053 1006.78 618.334 1006.78Z" fill="#0079bf" fill-rule="nonzero" opacity="1" stroke="none"/>
</g>
</svg>
