<svg id="eT3k1VH0u5Z1" xmlns="http://www.w3.org/2000/svg" xmlns:xlink="http://www.w3.org/1999/xlink" viewBox="0 0 48 48" shape-rendering="geometricPrecision" text-rendering="geometricPrecision"><path d="M28.25,43.45q-1.05,1-2.475,1t-2.475-1L4.55,24.7Q4,24.15,3.8,23.525t-.2-1.325L3.6,7q0-1.45.975-2.425t2.425-.975h15.2q.7,0,1.375.2t1.225.75L43.45,23.2q1.05,1.05,1.05,2.5t-1.05,2.55ZM25.9,41.1L41.1,25.9L22.2,7L7,7v15.2ZM12.25,14.8q1.05,0,1.825-.775t.775-1.825-.775-1.825-1.825-.775-1.825.775-.775,1.825.775,1.825t1.825.775ZM7,7" transform="matrix(0-1 1 0 0.025 48.075002)"/></svg>
